<?xml version="1.0" encoding="UTF-8" standalone="no"?>
<!-- Created with Inkscape (http://www.inkscape.org/) -->

<svg
   id="svg2"
   version="1.1"
   inkscape:version="1.1 (c4e8f9e, 2021-05-24)"
   xml:space="preserve"
   width="1580.3125"
   height="1073.6226"
   viewBox="0 0 1580.3125 1073.6226"
   sodipodi:docname="doctoral_front_cover.svg"
   xmlns:inkscape="http://www.inkscape.org/namespaces/inkscape"
   xmlns:sodipodi="http://sodipodi.sourceforge.net/DTD/sodipodi-0.dtd"
   xmlns="http://www.w3.org/2000/svg"
   xmlns:svg="http://www.w3.org/2000/svg"
   xmlns:rdf="http://www.w3.org/1999/02/22-rdf-syntax-ns#"
   xmlns:cc="http://creativecommons.org/ns#"
   xmlns:dc="http://purl.org/dc/elements/1.1/"><metadata
     id="metadata8"><rdf:RDF><cc:Work
         rdf:about=""><dc:format>image/svg+xml</dc:format><dc:type
           rdf:resource="http://purl.org/dc/dcmitype/StillImage" /></cc:Work></rdf:RDF></metadata><defs
     id="defs6"><clipPath
       clipPathUnits="userSpaceOnUse"
       id="clipPath20"><path
         d="m 0,858.898 1264.248,0 L 1264.248,0 0,0 0,858.898 Z"
         id="path22"
         inkscape:connector-curvature="0" /></clipPath><clipPath
       clipPathUnits="userSpaceOnUse"
       id="clipPath76"><path
         d="m 0,858.898 1264.248,0 L 1264.248,0 0,0 0,858.898 Z"
         id="path78"
         inkscape:connector-curvature="0" /></clipPath></defs><sodipodi:namedview
     pagecolor="#ffffff"
     bordercolor="#666666"
     borderopacity="1"
     objecttolerance="10"
     gridtolerance="10"
     guidetolerance="10"
     inkscape:pageopacity="0"
     inkscape:pageshadow="2"
     inkscape:window-width="1440"
     inkscape:window-height="785"
     id="namedview4"
     showgrid="false"
     inkscape:zoom="0.96261656"
     inkscape:cx="994.68474"
     inkscape:cy="365.15058"
     inkscape:window-x="0"
     inkscape:window-y="25"
     inkscape:window-maximized="1"
     inkscape:current-layer="g10"
     inkscape:pagecheckerboard="0" /><g
     id="g10"
     inkscape:groupmode="layer"
     inkscape:label="CAPA-Tese-Doutoramento-EE"
     transform="matrix(1.25,0,0,-1.25,0,1073.6225)"><path
   d="m 0,0 1264.248,0 0,858.898 L 0,858.898 0,0 Z"
   style="fill:#98999b;fill-opacity:1;fill-rule:nonzero;stroke:none"
   id="path12"
   inkscape:connector-curvature="0" /><path
   d="m 613.699,813.543 36.85,0 0,45.355 -36.85,0 0,-45.355 z"
   style="fill:#a8353a;fill-opacity:1;fill-rule:nonzero;stroke:none"
   id="path14"
   inkscape:connector-curvature="0" /><g
   id="g16"><g
     id="g18"
     clip-path="url(#clipPath20)"><g
       id="g24"
       transform="translate(641.6011,836.2665)"><path
         d="m 0,0 -7.038,-4.098 c -1.277,-0.737 -2.401,1.203 -1.123,1.941 l 7.039,4.095 C 0.157,2.677 1.276,0.737 0,0 m -19.307,-0.027 7.115,-4.035 c 1.276,-0.736 2.397,1.205 1.118,1.944 l -7.117,4.033 c -1.277,0.737 -2.394,-1.205 -1.116,-1.942 m 8.533,-14.819 -0.001,8.185 c 0,0.62 0.503,1.121 1.121,1.121 0.619,0 1.12,-0.502 1.12,-1.121 l -10e-4,-8.185 c 0,-0.618 -0.5,-1.12 -1.119,-1.12 -0.619,0 -1.12,0.501 -1.12,1.12 m -7.044,4.373 3.418,1.938 c 1.279,0.738 0.157,2.68 -1.12,1.942 l -3.417,-1.94 c -1.277,-0.738 -0.159,-2.678 1.119,-1.94 m 17.049,-0.065 -3.327,2.008 c -1.278,0.737 -0.154,2.677 1.124,1.939 L 0.355,-8.6 c 1.276,-0.736 0.156,-2.676 -1.124,-1.938 M -9.655,7.371 c -0.619,0 -1.119,-0.503 -1.119,-1.121 l -0.001,-3.929 c 0,-0.619 0.501,-1.121 1.12,-1.121 0.618,0 1.121,0.501 1.121,1.121 L -8.535,6.25 c 0,0.619 -0.501,1.121 -1.12,1.121"
         style="fill:#ffffff;fill-opacity:1;fill-rule:nonzero;stroke:none"
         id="path26"
         inkscape:connector-curvature="0" /></g><path
       d="m 884.406,776.647 73.747,0 0,82.25 -73.747,0 0,-82.25 z"
       style="fill:#a8353a;fill-opacity:1;fill-rule:nonzero;stroke:none"
       id="path28"
       inkscape:connector-curvature="0" /><g
       id="g30"
       transform="translate(940.2457,822.1215)"><path
         d="m 0,0 -14.084,-8.2 c -2.557,-1.476 -4.805,2.407 -2.248,3.884 L -2.246,3.879 C 0.314,5.357 2.555,1.475 0,0 m -38.638,-0.055 14.24,-8.074 c 2.553,-1.474 4.796,2.412 2.236,3.89 l -14.242,8.072 c -2.556,1.475 -4.792,-2.411 -2.234,-3.888 m 17.076,-29.655 -0.002,16.381 c 0,1.24 1.007,2.242 2.244,2.242 1.239,0 2.242,-1.004 2.242,-2.243 l -0.002,-16.38 c 0,-1.237 -1,-2.243 -2.24,-2.242 -1.239,0 -2.242,1.004 -2.242,2.242 m -14.096,8.751 6.84,3.878 c 2.559,1.478 0.315,5.363 -2.241,3.888 l -6.838,-3.883 c -2.556,-1.476 -0.319,-5.361 2.239,-3.883 m 34.12,-0.129 -6.659,4.017 c -2.557,1.475 -0.308,5.359 2.25,3.881 l 6.658,-4.019 c 2.554,-1.475 0.312,-5.357 -2.249,-3.879 M -19.322,14.75 c -1.24,0 -2.24,-1.005 -2.24,-2.242 l -0.002,-7.863 c 0,-1.239 1.003,-2.243 2.242,-2.243 1.237,0 2.244,1.003 2.244,2.243 l -0.002,7.863 c 0,1.239 -1.003,2.242 -2.242,2.242"
         style="fill:#ffffff;fill-opacity:1;fill-rule:nonzero;stroke:none"
         id="path32"
         inkscape:connector-curvature="0" /></g></g></g><text
   transform="matrix(1,0,0,-1,884.4053,736.7769)"
   style="font-variant:normal;font-weight:bold;font-stretch:normal;line-height:0%;font-family:NewsGotT;-inkscape-font-specification:NewsGotT-Bol;writing-mode:lr-tb;fill:#ffffff;fill-opacity:1;fill-rule:nonzero;stroke:none"
   id="text34"
   y="0"><tspan
     x="0 8.8464918 16.508577 20.164152 26.554096 33.879868 39.597187 46.001755 49.65733 57.275551 64.776787 72.395004 79.720779 83.376358 90.994576 98.466568 102.12215 114.44875 118.10432 125.7664 133.39925"
     y="0"
     sodipodi:role="line"
     id="tspan36"
     style="font-size:14.6223px;line-height:1.25">Universidade do Minho</tspan></text>
<text
   transform="matrix(1,0,0,-1,884.4053,720.04899)"
   style="font-variant:normal;font-weight:normal;font-stretch:normal;line-height:0%;font-family:NewsGotTLig;-inkscape-font-specification:NewsGotT-Lig;writing-mode:lr-tb;fill:#ffffff;fill-opacity:1;fill-rule:nonzero;stroke:none"
   id="text38"
   y="0"><tspan
     x="0 6.9309702 12.414332 18.277876 24.594709 27.307146 33.653225 37.3088 43.976566 50.000954 53.656528 60.587502 67.284515 73.206543 79.230934 85.927948 92.624962 98.96373 102.91906 105.63149"
     y="0"
     sodipodi:role="line"
     id="tspan40"
     style="font-size:14.6223px;line-height:1.25">Escola de Engenharia</tspan></text>
<text
   transform="matrix(1,0,0,-1,884.4053,583.9385)"
   style="font-variant:normal;font-weight:normal;font-stretch:normal;line-height:0%;font-family:NewsGotT;-inkscape-font-specification:NewsGotT-Reg;writing-mode:lr-tb;fill:#ffffff;fill-opacity:1;fill-rule:nonzero;stroke:none"
   id="text42"
   y="0"><tspan
     x="0"
     y="0"
     sodipodi:role="line"
     id="tspan44"
     style="font-size:17px;line-height:1.25">Ricardo Daniel Pereira da Costa</tspan></text>
<text
   transform="matrix(1,0,0,-1,884.4053,543.1385)"
   style="font-variant:normal;font-weight:bold;font-stretch:normal;line-height:0%;font-family:NewsGotT;-inkscape-font-specification:NewsGotT-Bol;writing-mode:lr-tb;fill:#ffffff;fill-opacity:1;fill-rule:nonzero;stroke:none"
   id="text46"
   y="0"><tspan
     sodipodi:role="line"
     id="tspan52"
     x="0"
     y="0"
     style="font-size:17px;line-height:1.25"><tspan
   style="font-style:normal;font-variant:normal;font-weight:bold;font-stretch:normal;font-family:NewsGotT;-inkscape-font-specification:'NewsGotT Bold'"
   id="tspan3499">Advanced</tspan> computational methods</tspan><tspan
     sodipodi:role="line"
     x="0"
     y="21.760893"
     id="tspan3439"
     style="font-size:17px;line-height:1.25">towards high-performance polymer</tspan><tspan
     sodipodi:role="line"
     x="0"
     y="43.521786"
     id="tspan3441"
     style="font-size:17px;line-height:1.25">processing simulations</tspan></text>
<text
   transform="matrix(1,0,0,-1,884.4062,36.8501)"
   style="font-variant:normal;font-weight:normal;font-stretch:normal;line-height:0%;font-family:NewsGotT;-inkscape-font-specification:NewsGotT-Reg;writing-mode:lr-tb;fill:#ffffff;fill-opacity:1;fill-rule:nonzero;stroke:none"
   id="text54"
   y="0"><tspan
     sodipodi:role="line"
     id="tspan56"
     x="0"
     y="0"
     style="font-size:10px;line-height:1.25">December 2020</tspan></text>
<text
   transform="matrix(0,1,1,0,635.041,36.8496)"
   style="font-variant:normal;font-weight:normal;font-stretch:normal;line-height:0%;font-family:NewsGotT;-inkscape-font-specification:NewsGotT-Reg;writing-mode:lr-tb;fill:#ffffff;fill-opacity:1;fill-rule:nonzero;stroke:none"
   id="text58"
   y="0"><tspan
     x="0 5.73 12.61 14.53 19.18 23.83 28.219999 30.719999 35.720001 38.220001 43.150002"
     y="0"
     sodipodi:role="line"
     id="tspan60"
     style="font-size:10px;line-height:1.25">UMinho | 2020</tspan></text>
<text
   transform="matrix(0,1,1,0,0,0)"
   style="font-variant:normal;font-weight:normal;font-stretch:normal;line-height:0%;font-family:NewsGotT;-inkscape-font-specification:NewsGotT-Reg;writing-mode:lr-tb;fill:#ffffff;fill-opacity:1;fill-rule:nonzero;stroke:none"
   id="text62"
   x="236.79077"
   y="635.625"><tspan
     x="236.79077"
     sodipodi:role="line"
     y="635.625"
     id="tspan3443"
     style="font-size:12px;line-height:1.25">Ricardo Daniel Pereira da Costa</tspan></text>
<text
   transform="matrix(0,1,1,0,628.425,383.167)"
   style="font-variant:normal;font-weight:bold;font-stretch:normal;line-height:0%;font-family:NewsGotT;-inkscape-font-specification:NewsGotT-Bol;writing-mode:lr-tb;fill:#ffffff;fill-opacity:1;fill-rule:nonzero;stroke:none"
   id="text66"
   y="0"><tspan
     sodipodi:role="line"
     x="0"
     y="0"
     id="tspan3497"
     style="font-size:12px;line-height:1.25">Advanced computational methods toward high-performance</tspan><tspan
     sodipodi:role="line"
     x="0"
     y="15"
     style="font-size:12px;line-height:1.25"
     id="tspan1577">polymer processing simulations</tspan></text>
<g
   id="g72"><g
     id="g74"
     clip-path="url(#clipPath76)"><path
       d="m 958.153,776.67 73.701,0 0,82.228 -73.701,0 0,-82.228 z"
       style="fill:#d25f15;fill-opacity:1;fill-rule:nonzero;stroke:none"
       id="path80"
       inkscape:connector-curvature="0" /><g
       id="g82"
       transform="translate(1004.7379,791.6635)"><path
         d="m 0,0 -19.562,-0.002 c -1.238,0 -2.239,1.006 -2.239,2.24 0,1.237 1.003,2.24 2.239,2.24 L 0,4.476 C 1.235,4.476 2.238,3.477 2.238,2.238 2.238,1.002 1.236,0 0,0 M 8.715,25.083 2.636,6.333 C 1.724,3.527 5.985,2.146 6.896,4.948 L 12.971,23.7 c 0.911,2.802 -3.345,4.188 -4.256,1.383 M -5.55,43.259 10.361,31.602 C 12.744,29.87 10.113,26.245 7.727,27.979 l -15.909,11.66 c -2.386,1.733 0.248,5.352 2.632,3.62 M -26.25,5.116 c 0.911,-2.801 5.172,-1.419 4.26,1.387 l -6.195,18.669 c -0.911,2.804 -5.166,1.417 -4.255,-1.385 l 6.19,-18.671 z m 12.347,38.135 c 2.383,1.732 5.016,-1.887 2.631,-3.62 L -27.221,28.026 c -2.386,-1.733 -5.017,1.892 -2.633,3.624 l 15.951,11.601 z"
         style="fill:#ffffff;fill-opacity:1;fill-rule:nonzero;stroke:none"
         id="path84"
         inkscape:connector-curvature="0" /></g><path
       d="m 613.699,776.693 36.851,0 0,36.85 -36.851,0 0,-36.85 z"
       style="fill:#d25f15;fill-opacity:1;fill-rule:nonzero;stroke:none"
       id="path86"
       inkscape:connector-curvature="0" /><g
       id="g88"
       transform="translate(636.9913,784.1898)"><path
         d="m 0,0 -9.781,-0.001 c -0.619,0 -1.119,0.503 -1.119,1.12 0,0.618 0.501,1.12 1.119,1.12 L 0,2.238 c 0.617,0 1.119,-0.5 1.119,-1.119 C 1.119,0.501 0.618,0 0,0 M 4.357,12.542 1.318,3.166 C 0.862,1.764 2.992,1.073 3.448,2.474 l 3.037,9.376 c 0.456,1.401 -1.672,2.094 -2.128,0.692 m -7.132,9.087 7.956,-5.828 C 6.372,14.935 5.057,13.123 3.863,13.989 l -7.954,5.83 c -1.193,0.867 0.124,2.676 1.316,1.81 M -13.125,2.558 c 0.456,-1.4 2.586,-0.709 2.13,0.693 l -3.097,9.335 c -0.456,1.402 -2.583,0.708 -2.128,-0.693 l 3.095,-9.335 z m 6.173,19.067 c 1.192,0.867 2.509,-0.943 1.316,-1.81 l -7.975,-5.802 c -1.193,-0.867 -2.508,0.946 -1.316,1.812 l 7.975,5.8 z"
         style="fill:#ffffff;fill-opacity:1;fill-rule:nonzero;stroke:none"
         id="path90"
         inkscape:connector-curvature="0" /></g></g></g><flowRoot
   xml:space="preserve"
   id="flowRoot3418"
   style="font-style:normal;font-variant:normal;font-weight:normal;font-stretch:normal;line-height:0.01%;font-family:NewsGotT;-inkscape-font-specification:NewsGotT;letter-spacing:0px;word-spacing:0px;fill:#000000;fill-opacity:1;stroke:none;stroke-width:1px;stroke-linecap:butt;stroke-linejoin:miter;stroke-opacity:1"><flowRegion
     id="flowRegion3420"><rect
       id="rect3422"
       width="728.60205"
       height="915.31903"
       x="1061.4453"
       y="54.797371"
       style="-inkscape-font-specification:NewsGotT;font-family:NewsGotT;font-weight:normal;font-style:normal;font-stretch:normal;font-variant:normal;" /></flowRegion><flowPara
     id="flowPara3424"
     style="font-size:40px;line-height:1.25"> </flowPara></flowRoot><flowRoot
   xml:space="preserve"
   id="flowRoot3426"
   style="font-style:normal;font-variant:normal;font-weight:normal;font-stretch:normal;line-height:0.01%;font-family:NewsGotT;-inkscape-font-specification:NewsGotT;letter-spacing:0px;word-spacing:0px;fill:#000000;fill-opacity:1;stroke:none;stroke-width:1px;stroke-linecap:butt;stroke-linejoin:miter;stroke-opacity:1"><flowRegion
     id="flowRegion3428"><rect
       id="rect3430"
       width="596.6825"
       height="464.76288"
       x="1012.7366"
       y="111.62428"
       style="-inkscape-font-specification:NewsGotT;font-family:NewsGotT;font-weight:normal;font-style:normal;font-stretch:normal;font-variant:normal;" /></flowRegion><flowPara
     id="flowPara3432"
     style="font-size:40px;line-height:1.25"> </flowPara></flowRoot><flowRoot
   xml:space="preserve"
   id="flowRoot3447"
   style="font-style:normal;font-weight:normal;line-height:0.01%;font-family:sans-serif;letter-spacing:0px;word-spacing:0px;fill:#000000;fill-opacity:1;stroke:none;stroke-width:1px;stroke-linecap:butt;stroke-linejoin:miter;stroke-opacity:1"><flowRegion
     id="flowRegion3449"><rect
       id="rect3451"
       width="0"
       height="54.797371"
       x="795.57666"
       y="688.01141" /></flowRegion><flowPara
     id="flowPara3453"
     style="font-size:40px;line-height:1.25"> </flowPara></flowRoot><flowRoot
   xml:space="preserve"
   id="flowRoot3455"
   style="font-style:normal;font-weight:normal;line-height:0.01%;font-family:sans-serif;letter-spacing:0px;word-spacing:0px;fill:#000000;fill-opacity:1;stroke:none;stroke-width:1px;stroke-linecap:butt;stroke-linejoin:miter;stroke-opacity:1"><flowRegion
     id="flowRegion3457"><rect
       id="rect3459"
       width="605.81537"
       height="241.51434"
       x="5248.3706"
       y="-5857.23" /></flowRegion><flowPara
     id="flowPara3461"
     style="font-size:40px;line-height:1.25"> </flowPara></flowRoot><flowRoot
   xml:space="preserve"
   id="flowRoot3463"
   style="font-style:normal;font-weight:normal;line-height:0.01%;font-family:sans-serif;letter-spacing:0px;word-spacing:0px;fill:#000000;fill-opacity:1;stroke:none;stroke-width:1px;stroke-linecap:butt;stroke-linejoin:miter;stroke-opacity:1"><flowRegion
     id="flowRegion3465"><rect
       id="rect3467"
       width="505.35352"
       height="501.29446"
       x="456.64474"
       y="253.69153" /></flowRegion><flowPara
     id="flowPara3469"
     style="font-size:40px;line-height:1.25"> </flowPara></flowRoot><flowRoot
   xml:space="preserve"
   id="flowRoot3471"
   style="font-style:normal;font-weight:normal;line-height:0.01%;font-family:sans-serif;letter-spacing:0px;word-spacing:0px;fill:#000000;fill-opacity:1;stroke:none;stroke-width:1px;stroke-linecap:butt;stroke-linejoin:miter;stroke-opacity:1"><flowRegion
     id="flowRegion3473"><rect
       id="rect3475"
       width="434.31992"
       height="619.00732"
       x="576.38715"
       y="219.18948" /></flowRegion><flowPara
     id="flowPara3477"
     style="font-size:40px;line-height:1.25"> </flowPara></flowRoot><flowRoot
   xml:space="preserve"
   id="flowRoot3479"
   style="font-style:normal;font-weight:normal;line-height:0.01%;font-family:sans-serif;letter-spacing:0px;word-spacing:0px;fill:#000000;fill-opacity:1;stroke:none;stroke-width:1px;stroke-linecap:butt;stroke-linejoin:miter;stroke-opacity:1"><flowRegion
     id="flowRegion3481"><rect
       id="rect3483"
       width="399.81784"
       height="608.85968"
       x="513.47168"
       y="107.56521" /></flowRegion><flowPara
     id="flowPara3485"
     style="font-size:40px;line-height:1.25"> </flowPara></flowRoot><text
   xml:space="preserve"
   style="font-style:normal;font-weight:normal;line-height:0%;font-family:sans-serif;letter-spacing:0px;word-spacing:0px;fill:#000000;fill-opacity:1;stroke:none;stroke-width:1px;stroke-linecap:butt;stroke-linejoin:miter;stroke-opacity:1"
   x="647.82672"
   y="-306.86523"
   id="text3487"
   transform="scale(1,-1)"><tspan
     sodipodi:role="line"
     id="tspan3489"
     x="647.82672"
     y="-306.86523"
     style="font-size:32px;line-height:1.25"> </tspan></text>
<text
   xml:space="preserve"
   style="font-style:normal;font-weight:normal;line-height:0%;font-family:sans-serif;letter-spacing:0px;word-spacing:0px;fill:#000000;fill-opacity:1;stroke:none;stroke-width:1px;stroke-linecap:butt;stroke-linejoin:miter;stroke-opacity:1"
   x="900.30048"
   y="-100.25884"
   id="text3404"
   transform="scale(1,-1)"><tspan
     sodipodi:role="line"
     id="tspan3406"
     x="900.30048"
     y="-100.25884"
     style="font-size:32px;line-height:1.25"> </tspan></text>
<text
   xml:space="preserve"
   style="font-style:normal;font-weight:normal;line-height:0%;font-family:sans-serif;letter-spacing:0px;word-spacing:0px;fill:#000000;fill-opacity:1;stroke:none;stroke-width:1px;stroke-linecap:butt;stroke-linejoin:miter;stroke-opacity:1"
   x="998.25281"
   y="36.164501"
   id="text3406"
   transform="scale(1,-1)"><tspan
     sodipodi:role="line"
     id="tspan3408"
     x="998.25281"
     y="36.164501"
     style="font-size:32px;line-height:1.25"> </tspan></text>
</g></svg>
