<?xml version="1.0" encoding="UTF-8" standalone="no"?>
<!-- Created with Inkscape (http://www.inkscape.org/) -->

<svg
   id="svg2"
   version="1.1"
   inkscape:version="1.1 (c4e8f9e, 2021-05-24)"
   xml:space="preserve"
   width="765.35999"
   height="1073.6226"
   viewBox="0 0 765.35999 1073.6226"
   sodipodi:docname="doctoral_title_page.svg"
   xmlns:inkscape="http://www.inkscape.org/namespaces/inkscape"
   xmlns:sodipodi="http://sodipodi.sourceforge.net/DTD/sodipodi-0.dtd"
   xmlns="http://www.w3.org/2000/svg"
   xmlns:svg="http://www.w3.org/2000/svg"
   xmlns:rdf="http://www.w3.org/1999/02/22-rdf-syntax-ns#"
   xmlns:cc="http://creativecommons.org/ns#"
   xmlns:dc="http://purl.org/dc/elements/1.1/"><metadata
     id="metadata8"><rdf:RDF><cc:Work
         rdf:about=""><dc:format>image/svg+xml</dc:format><dc:type
           rdf:resource="http://purl.org/dc/dcmitype/StillImage" /></cc:Work></rdf:RDF></metadata><defs
     id="defs6"><clipPath
       clipPathUnits="userSpaceOnUse"
       id="clipPath44"><path
         d="m 0,858.898 612.288,0 L 612.288,0 0,0 0,858.898 Z"
         id="path46"
         inkscape:connector-curvature="0" /></clipPath><clipPath
       clipPathUnits="userSpaceOnUse"
       id="clipPath68"><path
         d="m 0,858.898 612.288,0 L 612.288,0 0,0 0,858.898 Z"
         id="path70"
         inkscape:connector-curvature="0" /></clipPath></defs><sodipodi:namedview
     pagecolor="#ffffff"
     bordercolor="#666666"
     borderopacity="1"
     objecttolerance="10"
     gridtolerance="10"
     guidetolerance="10"
     inkscape:pageopacity="0"
     inkscape:pageshadow="2"
     inkscape:window-width="1440"
     inkscape:window-height="777"
     id="namedview4"
     showgrid="false"
     inkscape:zoom="1.2434701"
     inkscape:cx="353.44638"
     inkscape:cy="411.34885"
     inkscape:window-x="0"
     inkscape:window-y="25"
     inkscape:window-maximized="0"
     inkscape:current-layer="g10"
     inkscape:pagecheckerboard="0" /><g
     id="g10"
     inkscape:groupmode="layer"
     inkscape:label="FOLHA-ROSTO-EE"
     transform="matrix(1.25,0,0,-1.25,0,1073.6225)"><text
   transform="matrix(1,0,0,-1,231.6709,583.9385)"
   style="font-variant:normal;font-weight:normal;font-stretch:normal;line-height:0%;font-family:NewsGotT;-inkscape-font-specification:NewsGotT-Reg;writing-mode:lr-tb;fill:#98999b;fill-opacity:1;fill-rule:nonzero;stroke:none"
   id="text12"
   y="0"><tspan
     x="0"
     y="0"
     sodipodi:role="line"
     id="tspan14"
     style="font-size:17px;line-height:1.25">Ricardo Daniel Pereira da Costa</tspan></text>
<text
   transform="matrix(1,0,0,-1,231.6709,543.1385)"
   style="font-variant:normal;font-weight:bold;font-stretch:normal;line-height:0%;font-family:NewsGotT;-inkscape-font-specification:NewsGotT-Bol;writing-mode:lr-tb;fill:#98999b;fill-opacity:1;fill-rule:nonzero;stroke:none"
   id="text16"
   y="0"><tspan
     sodipodi:role="line"
     id="tspan22"
     x="0"
     y="0"
     style="font-size:17px;line-height:1.25">Advanced computational methods</tspan><tspan
     sodipodi:role="line"
     x="0"
     y="21.760893"
     id="tspan3411"
     style="font-size:17px;line-height:1.25">towards high-performance polymer</tspan><tspan
     sodipodi:role="line"
     x="0"
     y="43.521786"
     id="tspan3415"
     style="font-size:17px;line-height:1.25">processing simulations</tspan></text>
<text
   transform="matrix(1,0,0,-1,231.6709,330.8208)"
   style="font-variant:normal;font-weight:normal;font-stretch:normal;line-height:0%;font-family:NewsGotT;-inkscape-font-specification:NewsGotT-Reg;writing-mode:lr-tb;fill:#98999b;fill-opacity:1;fill-rule:nonzero;stroke:none"
   id="text24"
   y="0"><tspan
     x="0"
     y="0"
     sodipodi:role="line"
     id="tspan30"
     style="font-size:14px;line-height:1.25">Doctoral thesis</tspan><tspan
     x="0"
     y="17.5"
     sodipodi:role="line"
     style="font-size:14px;line-height:1.25"
     id="tspan43435">Science and Engineering of Polymers and Composites</tspan><tspan
     x="0"
     y="35"
     sodipodi:role="line"
     id="tspan3374"
     style="font-size:14px;line-height:1.25"> </tspan><tspan
     sodipodi:role="line"
     id="tspan32"
     y="52.5"
     x="0"
     style="font-size:14px;line-height:1.25"> </tspan><tspan
     sodipodi:role="line"
     y="70"
     x="0"
     id="tspan3423"
     style="font-size:14px;line-height:1.25">Work accomplished under the supervision of</tspan></text>
<text
   transform="scale(1,-1)"
   style="font-variant:normal;font-weight:bold;font-stretch:normal;line-height:0%;font-family:NewsGotT;-inkscape-font-specification:NewsGotT-Bol;writing-mode:lr-tb;fill:#98999b;fill-opacity:1;fill-rule:nonzero;stroke:none"
   id="text34"
   x="231.6709"
   y="-243.62079"><tspan
     x="231.6709"
     y="-243.62079"
     sodipodi:role="line"
     id="tspan36"
     style="font-size:14px;line-height:1.25">Professor João Miguel de Amorim Novais</tspan><tspan
     x="231.6709"
     y="-225.70006"
     sodipodi:role="line"
     id="tspan3425"
     style="font-size:14px;line-height:1.25">da Costa Nóbrega</tspan><tspan
     x="231.6709"
     y="-207.77931"
     sodipodi:role="line"
     id="tspan3427"
     style="font-size:14px;line-height:1.25">Professor Stéphane Louis Clain</tspan></text>
<path
   d="m 231.689,776.647 73.747,0 0,82.251 -73.747,0 0,-82.251 z"
   style="fill:#98999b;fill-opacity:1;fill-rule:nonzero;stroke:none"
   id="path38"
   inkscape:connector-curvature="0" /><g
   id="g40"><g
     id="g42"
     clip-path="url(#clipPath44)"><g
       id="g48"
       transform="translate(287.5284,822.121)"><path
         d="m 0,0 -14.084,-8.199 c -2.557,-1.476 -4.805,2.407 -2.248,3.883 L -2.246,3.88 C 0.314,5.358 2.555,1.475 0,0 m -38.639,-0.054 14.24,-8.074 c 2.554,-1.475 4.797,2.411 2.236,3.89 l -14.241,8.071 c -2.556,1.475 -4.793,-2.41 -2.235,-3.887 m 17.077,-29.655 -0.002,16.38 c 0,1.241 1.007,2.243 2.244,2.243 1.239,0 2.242,-1.004 2.242,-2.243 l -0.002,-16.38 c 0,-1.237 -1,-2.243 -2.24,-2.243 -1.239,0 -2.242,1.004 -2.242,2.243 m -14.096,8.75 6.84,3.878 c 2.559,1.478 0.314,5.364 -2.241,3.888 l -6.838,-3.882 c -2.556,-1.477 -0.319,-5.361 2.239,-3.884 m 34.12,-0.128 -6.66,4.017 c -2.556,1.475 -0.308,5.358 2.251,3.881 l 6.657,-4.02 c 2.554,-1.475 0.313,-5.356 -2.248,-3.878 m -17.784,35.838 c -1.24,0 -2.24,-1.005 -2.24,-2.242 l -0.002,-7.864 c 0,-1.238 1.003,-2.243 2.242,-2.243 1.237,0 2.244,1.003 2.244,2.243 l -0.002,7.864 c 0,1.238 -1.003,2.242 -2.242,2.242"
         style="fill:#ffffff;fill-opacity:1;fill-rule:nonzero;stroke:none"
         id="path50"
         inkscape:connector-curvature="0" /></g></g></g><text
   transform="matrix(1,0,0,-1,231.6875,736.7769)"
   style="font-variant:normal;font-weight:bold;font-stretch:normal;line-height:0%;font-family:NewsGotT;-inkscape-font-specification:NewsGotT-Bol;writing-mode:lr-tb;fill:#98999b;fill-opacity:1;fill-rule:nonzero;stroke:none"
   id="text52"
   y="0"><tspan
     x="0 8.8464918 16.508577 20.164152 26.554096 33.879868 39.597187 46.001755 49.65733 57.275551 64.776787 72.395004 79.720779 83.376358 90.994576 98.466568 102.12215 114.44875 118.10432 125.7664 133.39925"
     y="0"
     sodipodi:role="line"
     id="tspan54"
     style="font-size:14.6223px;line-height:1.25">Universidade do Minho</tspan></text>
<text
   transform="matrix(1,0,0,-1,231.6875,720.04899)"
   style="font-variant:normal;font-weight:normal;font-stretch:normal;line-height:0%;font-family:NewsGotTLig;-inkscape-font-specification:NewsGotT-Lig;writing-mode:lr-tb;fill:#98999b;fill-opacity:1;fill-rule:nonzero;stroke:none"
   id="text56"
   y="0"><tspan
     x="0 6.9309702 12.414332 18.277876 24.594709 27.307146 33.653225 37.3088 43.976566 50.000954 53.656528 60.587502 67.284515 73.206543 79.230934 85.927948 92.624962 98.96373 102.91906 105.63149"
     y="0"
     sodipodi:role="line"
     id="tspan58"
     style="font-size:14.6223px;line-height:1.25">Escola de Engenharia</tspan></text>
<text
   transform="matrix(1,0,0,-1,232.0732,36.8496)"
   style="font-variant:normal;font-weight:normal;font-stretch:normal;line-height:0%;font-family:NewsGotT;-inkscape-font-specification:NewsGotT-Reg;writing-mode:lr-tb;fill:#98999b;fill-opacity:1;fill-rule:nonzero;stroke:none"
   id="text60"
   y="0"><tspan
     sodipodi:role="line"
     id="tspan62"
     x="0"
     y="0"
     style="font-size:10px;line-height:1.25">December 2020</tspan></text>
<g
   id="g64"><g
     id="g66"
     clip-path="url(#clipPath68)"><path
       d="m 306.853,776.659 73.701,0 0,82.228 -73.701,0 0,-82.228 z"
       style="fill:#98999b;fill-opacity:1;fill-rule:nonzero;stroke:none"
       id="path72"
       inkscape:connector-curvature="0" /><g
       id="g74"
       transform="translate(353.4375,791.6517)"><path
         d="m 0,0 -19.562,-0.002 c -1.239,0 -2.239,1.006 -2.239,2.24 0,1.238 1.002,2.24 2.239,2.24 L 0,4.476 C 1.234,4.476 2.238,3.477 2.238,2.238 2.238,1.002 1.236,0 0,0 M 8.715,25.083 2.636,6.333 C 1.724,3.527 5.985,2.147 6.896,4.948 L 12.971,23.7 c 0.911,2.802 -3.345,4.188 -4.256,1.383 M -5.55,43.259 10.361,31.602 C 12.744,29.87 10.113,26.246 7.727,27.979 l -15.91,11.66 c -2.385,1.733 0.248,5.352 2.633,3.62 M -26.25,5.116 c 0.911,-2.8 5.172,-1.419 4.26,1.387 l -6.195,18.669 c -0.911,2.805 -5.166,1.417 -4.255,-1.385 l 6.19,-18.671 z m 12.347,38.135 c 2.383,1.732 5.016,-1.887 2.631,-3.62 l -15.95,-11.605 c -2.385,-1.733 -5.016,1.892 -2.632,3.624 l 15.951,11.601 z"
         style="fill:#ffffff;fill-opacity:1;fill-rule:nonzero;stroke:none"
         id="path76"
         inkscape:connector-curvature="0" /></g></g></g><text
   xml:space="preserve"
   style="font-style:normal;font-weight:normal;line-height:0%;font-family:sans-serif;letter-spacing:0px;word-spacing:0px;fill:#000000;fill-opacity:1;stroke:none;stroke-width:1px;stroke-linecap:butt;stroke-linejoin:miter;stroke-opacity:1"
   x="315.8902"
   y="-37.958256"
   id="text3369"
   transform="scale(1,-1)"><tspan
     sodipodi:role="line"
     id="tspan3371"
     x="315.8902"
     y="-37.958256"
     style="font-size:32px;line-height:1.25"> </tspan></text>
</g></svg>
