<?xml version="1.0" encoding="UTF-8" standalone="no"?>
<svg
   xmlns:dc="http://purl.org/dc/elements/1.1/"
   xmlns:cc="http://creativecommons.org/ns#"
   xmlns:rdf="http://www.w3.org/1999/02/22-rdf-syntax-ns#"
   xmlns:svg="http://www.w3.org/2000/svg"
   xmlns="http://www.w3.org/2000/svg"
   xmlns:sodipodi="http://sodipodi.sourceforge.net/DTD/sodipodi-0.dtd"
   xmlns:inkscape="http://www.inkscape.org/namespaces/inkscape"
   version="1.1"
   id="svg2"
   xml:space="preserve"
   width="816.38397"
   height="1145.1973"
   viewBox="0 0 816.38397 1145.1973"
   sodipodi:docname="FOLHA-ROSTO-EE.ai"><metadata
     id="metadata8"><rdf:RDF><cc:Work
         rdf:about=""><dc:format>image/svg+xml</dc:format><dc:type
           rdf:resource="http://purl.org/dc/dcmitype/StillImage" /></cc:Work></rdf:RDF></metadata><defs
     id="defs6"><clipPath
       clipPathUnits="userSpaceOnUse"
       id="clipPath46"><path
         d="M 0,858.898 H 612.288 V 0 H 0 Z"
         id="path44" /></clipPath><clipPath
       clipPathUnits="userSpaceOnUse"
       id="clipPath70"><path
         d="M 0,858.898 H 612.288 V 0 H 0 Z"
         id="path68" /></clipPath></defs><sodipodi:namedview
     pagecolor="#ffffff"
     bordercolor="#666666"
     borderopacity="1"
     objecttolerance="10"
     gridtolerance="10"
     guidetolerance="10"
     inkscape:pageopacity="0"
     inkscape:pageshadow="2"
     inkscape:window-width="640"
     inkscape:window-height="480"
     id="namedview4" /><g
     id="g10"
     inkscape:groupmode="layer"
     inkscape:label="FOLHA-ROSTO-EE"
     transform="matrix(1.3333333,0,0,-1.3333333,0,1145.1973)"><text
       transform="matrix(1,0,0,-1,231.6709,583.9385)"
       style="font-variant:normal;font-weight:normal;font-stretch:normal;font-size:17px;font-family:NewsGotT;-inkscape-font-specification:NewsGotT-Reg;writing-mode:lr-tb;fill:#98999b;fill-opacity:1;fill-rule:nonzero;stroke:none"
       id="text14"><tspan
         x="0 9.8769999 17.34 29.698999 37.026001 41.276001 49.062 56.525002 60.775002 68.999603 76.887604 80.879204 88.342201"
         y="0"
         sodipodi:role="line"
         id="tspan12">Nome do Autor</tspan></text><text
       transform="matrix(1,0,0,-1,231.6709,543.1385)"
       style="font-variant:normal;font-weight:bold;font-stretch:normal;font-size:17px;font-family:NewsGotT;-inkscape-font-specification:NewsGotT-Bol;writing-mode:lr-tb;fill:#98999b;fill-opacity:1;fill-rule:nonzero;stroke:none"
       id="text22"><tspan
         x="0 9.0609999 13.311 18.700001 27.573999 31.823999 40.5229 44.7729 53.8339 58.0839 63.4729 72.346901 76.596901 85.294098 89.544098 98.605103 102.8551 108.2441 117.1181 121.3681 130.067 134.317 143.37801 147.62801 153.017 161.89101 166.14101 174.8399 179.0899 188.15089 192.40089 197.7899 206.66389 210.91389 219.61279 223.86279 232.9238 237.1738 242.56281 251.4368 255.6868"
         y="0"
         sodipodi:role="line"
         id="tspan16">Título Título Título Título Título Título</tspan><tspan
         x="0 9.0609999 13.311 18.700001 27.573999 31.823999 40.5229 44.7729 53.8339 58.0839 63.4729 72.346901 76.596901 85.294098 89.544098 98.605103 102.8551 108.2441 117.1181 121.3681 130.067 134.317 143.37801 147.62801 153.017 161.89101 166.14101 174.8399 179.0899 188.15089 192.40089 197.7899 206.66389 210.91389"
         y="20.4"
         sodipodi:role="line"
         id="tspan18">Título Título Título Título Título</tspan><tspan
         x="0 9.0609999 13.311 18.700001 27.573999 31.823999 40.5229 44.7729 53.8339 58.0839 63.4729 72.346901 76.596901 85.294098 89.544098 98.605103 102.8551 108.2441 117.1181 121.3681 130.067 134.317 143.37801 147.62801 153.017 161.89101 166.14101"
         y="40.799999"
         sodipodi:role="line"
         id="tspan20">Título Título Título Título</tspan></text><text
       transform="matrix(1,0,0,-1,231.6709,330.8208)"
       style="font-variant:normal;font-weight:normal;font-stretch:normal;font-size:14px;font-family:NewsGotT;-inkscape-font-specification:NewsGotT-Reg;writing-mode:lr-tb;fill:#98999b;fill-opacity:1;fill-rule:nonzero;stroke:none"
       id="text32"><tspan
         x="0 7.8959999 10.584 16.1 21.615999 27.65 32.109001 35.609001 41.741001 47.466999 53.598999 59.744999 63.244999 69.656998 75.691002 79.191002 88.822998 94.857002 100.4542 103.8842 107.898 114.03 120.442"
         y="0"
         sodipodi:role="line"
         id="tspan24">Dissertação de Mestrado</tspan><tspan
         x="0 8.1339998 14.28 24.458 30.492001 33.992001 40.403999 46.549999 50.049999 59.681999 65.716003 71.299202 74.729202 78.742996 84.875 91.287003"
         y="16.799999"
         sodipodi:role="line"
         id="tspan26">Nome do Mestrado</tspan><tspan
         x="0 6.8039999 10.6778 16.7118 22.8438 26.3438 32.755798 38.789799 42.289799 48.323799 53.839802 60.3078 66.341797 72.067802 74.755798 80.887802 83.575798 86.263802 91.485802 97.617798 103.3438 109.4758"
         y="33.599998"
         sodipodi:role="line"
         id="tspan28">Área de especialização</tspan><tspan
         x="0 5.4137998 9.4261999 15.5582 21.998199 28.130199 30.818199 37.328201 43.474201 46.974201 53.008202 56.204399 62.0704 65.500397 71.996399 78.128403 84.540398 90.686401 94.186401 99.7024 105.8484 112.2884 115.7884 121.9204 125.4204 131.56641 135.6544 138.34241 144.3764 150.8864 154.37801 160.50999 166.23599 172.368 178.51401 182.01401 188.42599 194.57201 198.254 204.386"
         y="67.199997"
         sodipodi:role="line"
         id="tspan30">Trabalho efetuado sob a orientação do(a)</tspan></text><text
       transform="matrix(1,0,0,-1,231.6709,246.8208)"
       style="font-variant:normal;font-weight:bold;font-stretch:normal;font-size:14px;font-family:NewsGotT;-inkscape-font-specification:NewsGotT-Bol;writing-mode:lr-tb;fill:#98999b;fill-opacity:1;fill-rule:nonzero;stroke:none"
       id="text36"><tspan
         x="0 8.0500002 13.412 20.566 25.080999 32.095001 38.227001 44.359001 51.513 56.875 61.536999 68.719002 73.380997 76.880997 85.630997 92.785004 100.093 104.531 111.685 117.047 121.709 128.89101 133.55299 137.05299 146.44701 153.601 164.479 171.493 174.993 184.38699 191.541 202.41901 209.433 212.933 222.327 229.481 240.35899"
         y="0"
         sodipodi:role="line"
         id="tspan34">Professor(a) Doutor(a) Nome Nome Nome</tspan></text><path
       d="m 231.689,776.647 h 73.747 v 82.251 h -73.747 z"
       style="fill:#98999b;fill-opacity:1;fill-rule:nonzero;stroke:none"
       id="path38" /><g
       id="g40"><g
         id="g42"
         clip-path="url(#clipPath46)"><g
           id="g48"
           transform="translate(287.5284,822.121)"><path
             d="m 0,0 -14.084,-8.199 c -2.557,-1.476 -4.805,2.407 -2.248,3.883 L -2.246,3.88 C 0.314,5.358 2.555,1.475 0,0 m -38.639,-0.054 14.24,-8.074 c 2.554,-1.475 4.797,2.411 2.236,3.89 l -14.241,8.071 c -2.556,1.475 -4.793,-2.41 -2.235,-3.887 m 17.077,-29.655 -0.002,16.38 c 0,1.241 1.007,2.243 2.244,2.243 1.239,0 2.242,-1.004 2.242,-2.243 l -0.002,-16.38 c 0,-1.237 -1,-2.243 -2.24,-2.243 -1.239,0 -2.242,1.004 -2.242,2.243 m -14.096,8.75 6.84,3.878 c 2.559,1.478 0.314,5.364 -2.241,3.888 l -6.838,-3.882 c -2.556,-1.477 -0.319,-5.361 2.239,-3.884 m 34.12,-0.128 -6.66,4.017 c -2.556,1.475 -0.308,5.358 2.251,3.881 l 6.657,-4.02 c 2.554,-1.475 0.313,-5.356 -2.248,-3.878 m -17.784,35.838 c -1.24,0 -2.24,-1.005 -2.24,-2.242 l -0.002,-7.864 c 0,-1.238 1.003,-2.243 2.242,-2.243 1.237,0 2.244,1.003 2.244,2.243 l -0.002,7.864 c 0,1.238 -1.003,2.242 -2.242,2.242"
             style="fill:#ffffff;fill-opacity:1;fill-rule:nonzero;stroke:none"
             id="path50" /></g></g></g><text
       transform="matrix(1,0,0,-1,231.6875,736.7769)"
       style="font-variant:normal;font-weight:bold;font-stretch:normal;font-size:14.6223px;font-family:NewsGotT;-inkscape-font-specification:NewsGotT-Bol;writing-mode:lr-tb;fill:#98999b;fill-opacity:1;fill-rule:nonzero;stroke:none"
       id="text54"><tspan
         x="0 8.8464918 16.508577 20.164152 26.554096 33.879868 39.597187 46.001755 49.65733 57.275551 64.776787 72.395004 79.720779 83.376358 90.994576 98.466568 102.12215 114.44875 118.10432 125.7664 133.39925"
         y="0"
         sodipodi:role="line"
         id="tspan52">Universidade do Minho</tspan></text><text
       transform="matrix(1,0,0,-1,231.6875,720.04899)"
       style="font-variant:normal;font-weight:normal;font-stretch:normal;font-size:14.6223px;font-family:NewsGotTLig;-inkscape-font-specification:NewsGotT-Lig;writing-mode:lr-tb;fill:#98999b;fill-opacity:1;fill-rule:nonzero;stroke:none"
       id="text58"><tspan
         x="0 6.9309702 12.414332 18.277876 24.594709 27.307146 33.653225 37.3088 43.976566 50.000954 53.656528 60.587502 67.284515 73.206543 79.230934 85.927948 92.624962 98.96373 102.91906 105.63149"
         y="0"
         sodipodi:role="line"
         id="tspan56">Escola de Engenharia</tspan></text><text
       transform="matrix(1,0,0,-1,232.0732,36.8496)"
       style="font-variant:normal;font-weight:normal;font-stretch:normal;font-size:10px;font-family:NewsGotT;-inkscape-font-specification:NewsGotT-Reg;writing-mode:lr-tb;fill:#98999b;fill-opacity:1;fill-rule:nonzero;stroke:none"
       id="text62"><tspan
         x="0 7.27 11.65 14.57 18.66 23.049999 25.549999 30.129999 34.439999 36.939999 41.869999 46.799999 51.73"
         y="0"
         sodipodi:role="line"
         id="tspan60">março de 2019</tspan></text><g
       id="g64"><g
         id="g66"
         clip-path="url(#clipPath70)"><path
           d="m 306.853,776.659 h 73.701 v 82.228 h -73.701 z"
           style="fill:#98999b;fill-opacity:1;fill-rule:nonzero;stroke:none"
           id="path72" /><g
           id="g74"
           transform="translate(353.4375,791.6517)"><path
             d="m 0,0 -19.562,-0.002 c -1.239,0 -2.239,1.006 -2.239,2.24 0,1.238 1.002,2.24 2.239,2.24 L 0,4.476 C 1.234,4.476 2.238,3.477 2.238,2.238 2.238,1.002 1.236,0 0,0 M 8.715,25.083 2.636,6.333 C 1.724,3.527 5.985,2.147 6.896,4.948 L 12.971,23.7 c 0.911,2.802 -3.345,4.188 -4.256,1.383 M -5.55,43.259 10.361,31.602 C 12.744,29.87 10.113,26.246 7.727,27.979 l -15.91,11.66 c -2.385,1.733 0.248,5.352 2.633,3.62 M -26.25,5.116 c 0.911,-2.8 5.172,-1.419 4.26,1.387 l -6.195,18.669 c -0.911,2.805 -5.166,1.417 -4.255,-1.385 z m 12.347,38.135 c 2.383,1.732 5.016,-1.887 2.631,-3.62 l -15.95,-11.605 c -2.385,-1.733 -5.016,1.892 -2.632,3.624 z"
             style="fill:#ffffff;fill-opacity:1;fill-rule:nonzero;stroke:none"
             id="path76" /></g></g></g></g></svg>
