<?xml version="1.0" encoding="UTF-8" standalone="no"?>
<svg
   version="1.1"
   id="svg2"
   xml:space="preserve"
   width="1685.6667"
   height="1145.1973"
   viewBox="0 0 1685.6667 1145.1973"
   sodipodi:docname="master_front_cover.svg"
   inkscape:version="1.1 (c4e8f9e, 2021-05-24)"
   xmlns:inkscape="http://www.inkscape.org/namespaces/inkscape"
   xmlns:sodipodi="http://sodipodi.sourceforge.net/DTD/sodipodi-0.dtd"
   xmlns="http://www.w3.org/2000/svg"
   xmlns:svg="http://www.w3.org/2000/svg"
   xmlns:rdf="http://www.w3.org/1999/02/22-rdf-syntax-ns#"
   xmlns:cc="http://creativecommons.org/ns#"
   xmlns:dc="http://purl.org/dc/elements/1.1/"><metadata
     id="metadata8"><rdf:RDF><cc:Work
         rdf:about=""><dc:format>image/svg+xml</dc:format><dc:type
           rdf:resource="http://purl.org/dc/dcmitype/StillImage" /></cc:Work></rdf:RDF></metadata><defs
     id="defs6"><clipPath
       clipPathUnits="userSpaceOnUse"
       id="clipPath20"><path
         d="M 0,858.898 H 1264.248 V 0 H 0 Z"
         id="path18" /></clipPath><clipPath
       clipPathUnits="userSpaceOnUse"
       id="clipPath76"><path
         d="M 0,858.898 H 1264.248 V 0 H 0 Z"
         id="path74" /></clipPath></defs><sodipodi:namedview
     pagecolor="#ffffff"
     bordercolor="#666666"
     borderopacity="1"
     objecttolerance="10"
     gridtolerance="10"
     guidetolerance="10"
     inkscape:pageopacity="0"
     inkscape:pageshadow="2"
     inkscape:window-width="1440"
     inkscape:window-height="785"
     id="namedview4"
     inkscape:pagecheckerboard="0"
     showgrid="false"
     inkscape:zoom="1.7986105"
     inkscape:cx="1091.1201"
     inkscape:cy="1023.2899"
     inkscape:window-x="0"
     inkscape:window-y="25"
     inkscape:window-maximized="1"
     inkscape:current-layer="g10" /><g
     id="g10"
     inkscape:groupmode="layer"
     inkscape:label="CAPA-Dissertacao-Mestrado-EE"
     transform="matrix(1.3333333,0,0,-1.3333333,0,1145.1973)"><path
       d="m 613.699,813.543 h 36.85 v 45.355 h -36.85 z"
       style="fill:#a8353a;fill-opacity:1;fill-rule:nonzero;stroke:none"
       id="path12" /><g
       id="g14"><g
         id="g16"
         clip-path="url(#clipPath20)"><g
           id="g22"
           transform="translate(641.6011,836.2665)"><path
             d="m 0,0 -7.038,-4.098 c -1.277,-0.737 -2.401,1.203 -1.123,1.941 l 7.039,4.095 C 0.157,2.677 1.276,0.737 0,0 m -19.307,-0.027 7.115,-4.035 c 1.276,-0.736 2.397,1.205 1.118,1.944 l -7.117,4.033 c -1.277,0.737 -2.394,-1.205 -1.116,-1.942 m 8.533,-14.819 -0.001,8.185 c 0,0.62 0.503,1.121 1.121,1.121 0.619,0 1.12,-0.502 1.12,-1.121 l -10e-4,-8.185 c 0,-0.618 -0.5,-1.12 -1.119,-1.12 -0.619,0 -1.12,0.501 -1.12,1.12 m -7.044,4.373 3.418,1.938 c 1.279,0.738 0.157,2.68 -1.12,1.942 l -3.417,-1.94 c -1.277,-0.738 -0.159,-2.678 1.119,-1.94 m 17.049,-0.065 -3.327,2.008 c -1.278,0.737 -0.154,2.677 1.124,1.939 L 0.355,-8.6 c 1.276,-0.736 0.156,-2.676 -1.124,-1.938 M -9.655,7.371 c -0.619,0 -1.119,-0.503 -1.119,-1.121 l -0.001,-3.929 c 0,-0.619 0.501,-1.121 1.12,-1.121 0.618,0 1.121,0.501 1.121,1.121 L -8.535,6.25 c 0,0.619 -0.501,1.121 -1.12,1.121"
             style="fill:#ffffff;fill-opacity:1;fill-rule:nonzero;stroke:none"
             id="path24" /></g><path
           d="m 884.406,776.647 h 73.747 v 82.25 h -73.747 z"
           style="fill:#a8353a;fill-opacity:1;fill-rule:nonzero;stroke:none"
           id="path26" /><g
           id="g28"
           transform="translate(940.2457,822.1215)"><path
             d="m 0,0 -14.084,-8.2 c -2.557,-1.476 -4.805,2.407 -2.248,3.884 L -2.246,3.879 C 0.314,5.357 2.555,1.475 0,0 m -38.638,-0.055 14.24,-8.074 c 2.553,-1.474 4.796,2.412 2.236,3.89 l -14.242,8.072 c -2.556,1.475 -4.792,-2.411 -2.234,-3.888 m 17.076,-29.655 -0.002,16.381 c 0,1.24 1.007,2.242 2.244,2.242 1.239,0 2.242,-1.004 2.242,-2.243 l -0.002,-16.38 c 0,-1.237 -1,-2.243 -2.24,-2.242 -1.239,0 -2.242,1.004 -2.242,2.242 m -14.096,8.751 6.84,3.878 c 2.559,1.478 0.315,5.363 -2.241,3.888 l -6.838,-3.883 c -2.556,-1.476 -0.319,-5.361 2.239,-3.883 m 34.12,-0.129 -6.659,4.017 c -2.557,1.475 -0.308,5.359 2.25,3.881 l 6.658,-4.019 c 2.554,-1.475 0.312,-5.357 -2.249,-3.879 M -19.322,14.75 c -1.24,0 -2.24,-1.005 -2.24,-2.242 l -0.002,-7.863 c 0,-1.239 1.003,-2.243 2.242,-2.243 1.237,0 2.244,1.003 2.244,2.243 l -0.002,7.863 c 0,1.239 -1.003,2.242 -2.242,2.242"
             style="fill:#ffffff;fill-opacity:1;fill-rule:nonzero;stroke:none"
             id="path30" /></g></g></g><text
       transform="matrix(1,0,0,-1,884.4053,736.7769)"
       style="font-variant:normal;font-weight:bold;font-stretch:normal;font-size:14.6223px;font-family:NewsGotT;-inkscape-font-specification:NewsGotT-Bol;writing-mode:lr-tb;fill:#98999b;fill-opacity:1;fill-rule:nonzero;stroke:none"
       id="text34"><tspan
         x="0 8.8464918 16.508577 20.164152 26.554096 33.879868 39.597187 46.001755 49.65733 57.275551 64.776787 72.395004 79.720779 83.376358 90.994576 98.466568 102.12215 114.44875 118.10432 125.7664 133.39925"
         y="0"
         sodipodi:role="line"
         id="tspan32">Universidade do Minho</tspan></text><text
       transform="matrix(1,0,0,-1,884.4053,720.04899)"
       style="font-variant:normal;font-weight:normal;font-stretch:normal;font-size:14.6223px;font-family:NewsGotTLig;-inkscape-font-specification:NewsGotT-Lig;writing-mode:lr-tb;fill:#98999b;fill-opacity:1;fill-rule:nonzero;stroke:none"
       id="text38"><tspan
         x="0 6.9309702 12.414332 18.277876 24.594709 27.307146 33.653225 37.3088 43.976566 50.000954 53.656528 60.587502 67.284515 73.206543 79.230934 85.927948 92.624962 98.96373 102.91906 105.63149"
         y="0"
         sodipodi:role="line"
         id="tspan36">Escola de Engenharia</tspan></text><text
       transform="matrix(1,0,0,-1,884.4053,583.9385)"
       style="font-variant:normal;font-weight:normal;font-stretch:normal;font-size:17px;font-family:NewsGotT;-inkscape-font-specification:NewsGotT-Reg;writing-mode:lr-tb;fill:#98999b;fill-opacity:1;fill-rule:nonzero;stroke:none"
       id="text42"><tspan
         x="0"
         y="0"
         sodipodi:role="line"
         id="tspan40">Ricardo Daniel Pereira da Costa</tspan></text><text
       transform="matrix(1,0,0,-1,884.4053,543.1385)"
       style="font-variant:normal;font-weight:bold;font-stretch:normal;font-size:17px;font-family:NewsGotT;-inkscape-font-specification:NewsGotT-Bol;writing-mode:lr-tb;fill:#98999b;fill-opacity:1;fill-rule:nonzero;stroke:none"
       id="text50"><tspan
         sodipodi:role="line"
         id="tspan48"
         x="0"
         y="0">Numerical modelling and assessment</tspan><tspan
         sodipodi:role="line"
         x="0"
         y="21.760893"
         id="tspan9400">of the thermal environment in an</tspan><tspan
         sodipodi:role="line"
         x="0"
         y="43.521786"
         id="tspan9402">industrial premise of automotive</tspan><tspan
         sodipodi:role="line"
         x="0"
         y="65.282677"
         id="tspan9404">components</tspan></text><text
       transform="matrix(1,0,0,-1,884.4062,36.8501)"
       style="font-variant:normal;font-weight:normal;font-stretch:normal;font-size:10px;font-family:NewsGotT;-inkscape-font-specification:NewsGotT-Reg;writing-mode:lr-tb;fill:#98999b;fill-opacity:1;fill-rule:nonzero;stroke:none"
       id="text54"><tspan
         sodipodi:role="line"
         id="tspan52"
         x="0"
         y="0">October 2015</tspan></text><text
       transform="matrix(0,1,1,0,635.041,36.8496)"
       style="font-variant:normal;font-weight:normal;font-stretch:normal;font-size:10px;font-family:NewsGotT;-inkscape-font-specification:NewsGotT-Reg;writing-mode:lr-tb;fill:#98999b;fill-opacity:1;fill-rule:nonzero;stroke:none"
       id="text58"><tspan
         x="0 5.73 12.61 14.53 19.18 23.83 28.219999 30.719999 35.720001 38.220001 43.150002 48.080002"
         y="0"
         sodipodi:role="line"
         id="tspan56">UMinho | 2015</tspan></text><text
       transform="matrix(0,1,1,0,0,0)"
       style="font-variant:normal;font-weight:normal;font-stretch:normal;font-size:12px;font-family:NewsGotT;-inkscape-font-specification:NewsGotT-Reg;writing-mode:lr-tb;fill:#98999b;fill-opacity:1;fill-rule:nonzero;stroke:none"
       id="text62"
       x="230.65619"
       y="635.625"><tspan
         sodipodi:role="line"
         id="tspan60"
         x="230.65619"
         y="635.625">Ricardo Daniel Pereira da Costa</tspan></text><text
       transform="matrix(0,1,1,0,628.425,377.0322)"
       style="font-variant:normal;font-weight:bold;font-stretch:normal;font-size:12px;font-family:NewsGotT;-inkscape-font-specification:NewsGotT-Bol;writing-mode:lr-tb;fill:#98999b;fill-opacity:1;fill-rule:nonzero;stroke:none"
       id="text68"><tspan
         sodipodi:role="line"
         x="0"
         y="0"
         id="tspan15318">Numerical modelling and assessment of the thermal environment</tspan><tspan
         sodipodi:role="line"
         x="0"
         y="15.36063"
         id="tspan16474">in an industrial premise of automotive components</tspan></text><g
       id="g70"><g
         id="g72"
         clip-path="url(#clipPath76)"><path
           d="m 958.153,776.67 h 73.701 v 82.228 h -73.701 z"
           style="fill:#d25f15;fill-opacity:1;fill-rule:nonzero;stroke:none"
           id="path78" /><g
           id="g80"
           transform="translate(1004.7379,791.6635)"><path
             d="m 0,0 -19.562,-0.002 c -1.238,0 -2.239,1.006 -2.239,2.24 0,1.237 1.003,2.24 2.239,2.24 L 0,4.476 C 1.235,4.476 2.238,3.477 2.238,2.238 2.238,1.002 1.236,0 0,0 M 8.715,25.083 2.636,6.333 C 1.724,3.527 5.985,2.146 6.896,4.948 L 12.971,23.7 c 0.911,2.802 -3.345,4.188 -4.256,1.383 M -5.55,43.259 10.361,31.602 C 12.744,29.87 10.113,26.245 7.727,27.979 l -15.909,11.66 c -2.386,1.733 0.248,5.352 2.632,3.62 M -26.25,5.116 c 0.911,-2.801 5.172,-1.419 4.26,1.387 l -6.195,18.669 c -0.911,2.804 -5.166,1.417 -4.255,-1.385 z m 12.347,38.135 c 2.383,1.732 5.016,-1.887 2.631,-3.62 L -27.221,28.026 c -2.386,-1.733 -5.017,1.892 -2.633,3.624 z"
             style="fill:#ffffff;fill-opacity:1;fill-rule:nonzero;stroke:none"
             id="path82" /></g><path
           d="m 613.699,776.693 h 36.851 v 36.85 h -36.851 z"
           style="fill:#d25f15;fill-opacity:1;fill-rule:nonzero;stroke:none"
           id="path84" /><g
           id="g86"
           transform="translate(636.9913,784.1898)"><path
             d="m 0,0 -9.781,-0.001 c -0.619,0 -1.119,0.503 -1.119,1.12 0,0.618 0.501,1.12 1.119,1.12 L 0,2.238 c 0.617,0 1.119,-0.5 1.119,-1.119 C 1.119,0.501 0.618,0 0,0 M 4.357,12.542 1.318,3.166 C 0.862,1.764 2.992,1.073 3.448,2.474 l 3.037,9.376 c 0.456,1.401 -1.672,2.094 -2.128,0.692 m -7.132,9.087 7.956,-5.828 C 6.372,14.935 5.057,13.123 3.863,13.989 l -7.954,5.83 c -1.193,0.867 0.124,2.676 1.316,1.81 M -13.125,2.558 c 0.456,-1.4 2.586,-0.709 2.13,0.693 l -3.097,9.335 c -0.456,1.402 -2.583,0.708 -2.128,-0.693 z m 6.173,19.067 c 1.192,0.867 2.509,-0.943 1.316,-1.81 l -7.975,-5.802 c -1.193,-0.867 -2.508,0.946 -1.316,1.812 z"
             style="fill:#ffffff;fill-opacity:1;fill-rule:nonzero;stroke:none"
             id="path88" /></g></g></g></g></svg>
