<?xml version="1.0" encoding="UTF-8" standalone="no"?>
<svg
   version="1.1"
   id="svg2"
   xml:space="preserve"
   width="816.38397"
   height="1145.1973"
   viewBox="0 0 816.38397 1145.1973"
   sodipodi:docname="master_title_page.svg"
   inkscape:version="1.1 (c4e8f9e, 2021-05-24)"
   xmlns:inkscape="http://www.inkscape.org/namespaces/inkscape"
   xmlns:sodipodi="http://sodipodi.sourceforge.net/DTD/sodipodi-0.dtd"
   xmlns="http://www.w3.org/2000/svg"
   xmlns:svg="http://www.w3.org/2000/svg"
   xmlns:rdf="http://www.w3.org/1999/02/22-rdf-syntax-ns#"
   xmlns:cc="http://creativecommons.org/ns#"
   xmlns:dc="http://purl.org/dc/elements/1.1/"><metadata
     id="metadata8"><rdf:RDF><cc:Work
         rdf:about=""><dc:format>image/svg+xml</dc:format><dc:type
           rdf:resource="http://purl.org/dc/dcmitype/StillImage" /></cc:Work></rdf:RDF></metadata><defs
     id="defs6"><rect
       x="471.00514"
       y="720.92623"
       width="185.03773"
       height="12.015437"
       id="rect39045" /><clipPath
       clipPathUnits="userSpaceOnUse"
       id="clipPath46"><path
         d="M 0,858.898 H 612.288 V 0 H 0 Z"
         id="path44" /></clipPath><clipPath
       clipPathUnits="userSpaceOnUse"
       id="clipPath70"><path
         d="M 0,858.898 H 612.288 V 0 H 0 Z"
         id="path68" /></clipPath></defs><sodipodi:namedview
     pagecolor="#ffffff"
     bordercolor="#666666"
     borderopacity="1"
     objecttolerance="10"
     gridtolerance="10"
     guidetolerance="10"
     inkscape:pageopacity="0"
     inkscape:pageshadow="2"
     inkscape:window-width="1440"
     inkscape:window-height="785"
     id="namedview4"
     inkscape:pagecheckerboard="0"
     showgrid="false"
     inkscape:zoom="0.83226269"
     inkscape:cx="286.56818"
     inkscape:cy="626.60505"
     inkscape:window-x="0"
     inkscape:window-y="25"
     inkscape:window-maximized="1"
     inkscape:current-layer="g10" /><g
     id="g10"
     inkscape:groupmode="layer"
     inkscape:label="FOLHA-ROSTO-EE"
     transform="matrix(1.3333333,0,0,-1.3333333,0,1145.1973)"><text
       transform="matrix(1,0,0,-1,231.6709,583.9385)"
       style="font-variant:normal;font-weight:normal;font-stretch:normal;font-size:17px;font-family:NewsGotT;-inkscape-font-specification:NewsGotT-Reg;writing-mode:lr-tb;fill:#98999b;fill-opacity:1;fill-rule:nonzero;stroke:none"
       id="text14"><tspan
         sodipodi:role="line"
         id="tspan12"
         x="0"
         y="0">Ricardo Daniel Pereira da Costa</tspan></text><text
       transform="matrix(1,0,0,-1,231.6709,543.1385)"
       style="font-variant:normal;font-weight:bold;font-stretch:normal;font-size:17px;font-family:NewsGotT;-inkscape-font-specification:NewsGotT-Bol;writing-mode:lr-tb;fill:#98999b;fill-opacity:1;fill-rule:nonzero;stroke:none"
       id="text22"><tspan
         sodipodi:role="line"
         id="tspan20"
         x="0"
         y="0">Numerical modelling and assessment</tspan><tspan
         sodipodi:role="line"
         x="0"
         y="21.760893"
         id="tspan2523">of the thermal environment in an</tspan><tspan
         sodipodi:role="line"
         x="0"
         y="43.521786"
         id="tspan2525">industrial premise of automotive</tspan><tspan
         sodipodi:role="line"
         x="0"
         y="65.282677"
         id="tspan2527">components</tspan></text><text
       transform="scale(1,-1)"
       style="font-variant:normal;font-weight:normal;font-stretch:normal;font-size:14px;font-family:NewsGotT;-inkscape-font-specification:NewsGotT-Reg;writing-mode:lr-tb;fill:#98999b;fill-opacity:1;fill-rule:nonzero;stroke:none"
       id="text32"
       x="231.6709"
       y="-332.3208"><tspan
         x="231.6709"
         sodipodi:role="line"
         y="-332.3208"
         id="tspan26065">Master's Dissertation</tspan><tspan
         x="231.6709"
         sodipodi:role="line"
         y="-314.40005"
         id="tspan32231">Industrial Engineering</tspan><tspan
         x="231.6709"
         sodipodi:role="line"
         y="-296.47934"
         id="tspan35319"></tspan><tspan
         x="231.6709"
         sodipodi:role="line"
         y="-278.55859"
         id="tspan35325"></tspan><tspan
         x="231.6709"
         sodipodi:role="line"
         y="-260.63785"
         id="tspan35327">Work accomplished under the supervision of</tspan></text><text
       transform="scale(1,-1)"
       style="font-variant:normal;font-weight:bold;font-stretch:normal;font-size:14px;font-family:NewsGotT;-inkscape-font-specification:NewsGotT-Bol;writing-mode:lr-tb;fill:#98999b;fill-opacity:1;fill-rule:nonzero;stroke:none"
       id="text36"
       x="231.6709"
       y="-243.8208"><tspan
         sodipodi:role="line"
         id="tspan34"
         x="231.6709"
         y="-243.8208">Professora Doutora Senhorinha Fátima</tspan><tspan
         sodipodi:role="line"
         x="231.6709"
         y="-225.90007"
         id="tspan6945">Capela Fortunas Teixeira</tspan><tspan
         sodipodi:role="line"
         x="231.6709"
         y="-207.97932"
         id="tspan8151">Professora Doutora Isabel Maria Pereira</tspan><tspan
         sodipodi:role="line"
         x="231.6709"
         y="-190.05859"
         id="tspan8153">Leite de Freitas Loureiro</tspan></text><path
       d="m 231.689,776.647 h 73.747 v 82.251 h -73.747 z"
       style="fill:#98999b;fill-opacity:1;fill-rule:nonzero;stroke:none"
       id="path38" /><g
       id="g40"><g
         id="g42"
         clip-path="url(#clipPath46)"><g
           id="g48"
           transform="translate(287.5284,822.121)"><path
             d="m 0,0 -14.084,-8.199 c -2.557,-1.476 -4.805,2.407 -2.248,3.883 L -2.246,3.88 C 0.314,5.358 2.555,1.475 0,0 m -38.639,-0.054 14.24,-8.074 c 2.554,-1.475 4.797,2.411 2.236,3.89 l -14.241,8.071 c -2.556,1.475 -4.793,-2.41 -2.235,-3.887 m 17.077,-29.655 -0.002,16.38 c 0,1.241 1.007,2.243 2.244,2.243 1.239,0 2.242,-1.004 2.242,-2.243 l -0.002,-16.38 c 0,-1.237 -1,-2.243 -2.24,-2.243 -1.239,0 -2.242,1.004 -2.242,2.243 m -14.096,8.75 6.84,3.878 c 2.559,1.478 0.314,5.364 -2.241,3.888 l -6.838,-3.882 c -2.556,-1.477 -0.319,-5.361 2.239,-3.884 m 34.12,-0.128 -6.66,4.017 c -2.556,1.475 -0.308,5.358 2.251,3.881 l 6.657,-4.02 c 2.554,-1.475 0.313,-5.356 -2.248,-3.878 m -17.784,35.838 c -1.24,0 -2.24,-1.005 -2.24,-2.242 l -0.002,-7.864 c 0,-1.238 1.003,-2.243 2.242,-2.243 1.237,0 2.244,1.003 2.244,2.243 l -0.002,7.864 c 0,1.238 -1.003,2.242 -2.242,2.242"
             style="fill:#ffffff;fill-opacity:1;fill-rule:nonzero;stroke:none"
             id="path50" /></g></g></g><text
       transform="matrix(1,0,0,-1,231.6875,736.7769)"
       style="font-variant:normal;font-weight:bold;font-stretch:normal;font-size:14.6223px;font-family:NewsGotT;-inkscape-font-specification:NewsGotT-Bol;writing-mode:lr-tb;fill:#98999b;fill-opacity:1;fill-rule:nonzero;stroke:none"
       id="text54"><tspan
         x="0 8.8464918 16.508577 20.164152 26.554096 33.879868 39.597187 46.001755 49.65733 57.275551 64.776787 72.395004 79.720779 83.376358 90.994576 98.466568 102.12215 114.44875 118.10432 125.7664 133.39925"
         y="0"
         sodipodi:role="line"
         id="tspan52">Universidade do Minho</tspan></text><text
       transform="matrix(1,0,0,-1,231.6875,720.04899)"
       style="font-variant:normal;font-weight:normal;font-stretch:normal;font-size:14.6223px;font-family:NewsGotTLig;-inkscape-font-specification:NewsGotT-Lig;writing-mode:lr-tb;fill:#98999b;fill-opacity:1;fill-rule:nonzero;stroke:none"
       id="text58"><tspan
         x="0 6.9309702 12.414332 18.277876 24.594709 27.307146 33.653225 37.3088 43.976566 50.000954 53.656528 60.587502 67.284515 73.206543 79.230934 85.927948 92.624962 98.96373 102.91906 105.63149"
         y="0"
         sodipodi:role="line"
         id="tspan56">Escola de Engenharia</tspan></text><text
       transform="matrix(1,0,0,-1,232.0732,36.8496)"
       style="font-variant:normal;font-weight:normal;font-stretch:normal;font-size:10px;font-family:NewsGotT;-inkscape-font-specification:NewsGotT-Reg;writing-mode:lr-tb;fill:#98999b;fill-opacity:1;fill-rule:nonzero;stroke:none"
       id="text62"><tspan
         sodipodi:role="line"
         id="tspan60"
         x="0"
         y="0">October 2015</tspan></text><g
       id="g64"><g
         id="g66"
         clip-path="url(#clipPath70)"><path
           d="m 306.853,776.659 h 73.701 v 82.228 h -73.701 z"
           style="fill:#98999b;fill-opacity:1;fill-rule:nonzero;stroke:none"
           id="path72" /><g
           id="g74"
           transform="translate(353.4375,791.6517)"><path
             d="m 0,0 -19.562,-0.002 c -1.239,0 -2.239,1.006 -2.239,2.24 0,1.238 1.002,2.24 2.239,2.24 L 0,4.476 C 1.234,4.476 2.238,3.477 2.238,2.238 2.238,1.002 1.236,0 0,0 M 8.715,25.083 2.636,6.333 C 1.724,3.527 5.985,2.147 6.896,4.948 L 12.971,23.7 c 0.911,2.802 -3.345,4.188 -4.256,1.383 M -5.55,43.259 10.361,31.602 C 12.744,29.87 10.113,26.246 7.727,27.979 l -15.91,11.66 c -2.385,1.733 0.248,5.352 2.633,3.62 M -26.25,5.116 c 0.911,-2.8 5.172,-1.419 4.26,1.387 l -6.195,18.669 c -0.911,2.805 -5.166,1.417 -4.255,-1.385 z m 12.347,38.135 c 2.383,1.732 5.016,-1.887 2.631,-3.62 l -15.95,-11.605 c -2.385,-1.733 -5.016,1.892 -2.632,3.624 z"
             style="fill:#ffffff;fill-opacity:1;fill-rule:nonzero;stroke:none"
             id="path76" /></g></g></g><text
       xml:space="preserve"
       transform="matrix(0.75000002,0,0,-0.75000002,0,858.898)"
       id="text39043"
       style="line-height:1.25;font-family:sans-serif;font-size:8px;white-space:pre;shape-inside:url(#rect39045)" /></g></svg>
